<?xml version="1.0" encoding="utf-8"?>
<!-- Generator: Adobe Illustrator 19.2.1, SVG Export Plug-In . SVG Version: 6.00 Build 0)  -->
<svg version="1.1" id="Layer_1" xmlns="http://www.w3.org/2000/svg" xmlns:xlink="http://www.w3.org/1999/xlink" x="0px" y="0px"
	 viewBox="0 0 36.8 28.3" style="enable-background:new 0 0 36.8 28.3;" xml:space="preserve">
<style type="text/css">
	.st0{fill:#004A6C;}
	.st1{fill:#7892AE;}
</style>
<path class="st0" d="M33.1,10.2c0.8,1.2,1.2,2.6,1.2,4.1c0,3.7-2.7,6.8-6.3,7.4l-1.2,2.6c5.5,0,10-4.5,10-10c0-2.5-0.9-4.8-2.6-6.7
	L33.1,10.2z"/>
<path class="st0" d="M18.4,8.7c-0.8,1.2-1.3,2.6-1.6,4c1.2,1.6,1.9,3.6,1.9,5.7c0,0.5-0.1,1.1-0.1,1.6c1.4,2,3.5,3.4,5.9,4L24,22.7
	l-0.9-2c-2.4-1.3-3.8-3.8-3.8-6.6c0-0.6,0.1-1.1,0.2-1.7l0,0v-0.1l0,0C20,10.6,21.1,9,22.6,8L23,7.7l0,0c2.1-1.2,4.7-1.4,6.9-0.4
	l1.3-2.2c-1.4-0.7-2.9-1-4.4-1c-1.8,0-3.6,0.5-5.1,1.4C20.4,6.4,19.2,7.4,18.4,8.7z"/>
<path class="st1" d="M22.7,8.9L22.7,8.9C22.6,8.9,22.6,8.9,22.7,8.9c-0.3,0.2-0.5,0.4-0.7,0.7l-0.1,0.1c-0.2,0.2-0.4,0.5-0.6,0.7
	l-0.1,0.1c-0.2,0.3-0.3,0.6-0.5,0.9l0,0c-0.1,0.3-0.2,0.6-0.3,0.9c0,0,0,0,0,0.1l0,0l5.2,11.7c0.2,0,0.4,0,0.6,0.1l9.7-22.8V0
	l-10,15.8L22.7,8.9z"/>
<path class="st0" d="M18,20.2c0-0.2,0.1-0.5,0.1-0.7s0-0.4,0-0.6c0-1.7-0.5-3.2-1.3-4.6c-0.1-0.2-0.2-0.4-0.4-0.6
	c-0.1-0.1-0.2-0.3-0.3-0.4c-0.6-0.7-1.2-1.3-2-1.9l-0.4-0.2L20,4.4H2.3v3.1h10.8l-4.6,5l2.3,0.7c2.5,0.8,4.2,3.1,4.2,5.7
	c0,3.3-2.7,6-6,6c-3.2,0-5.8-2.5-6-5.6H0C0.2,24.1,4.2,28,9.1,28c4.4,0,8.1-3.1,8.9-7.3C18,20.5,18,20.4,18,20.2z"/>
<path class="st0" d="M22.5,25.8H23l1,2.4h-0.5l-0.2-0.5h-1L22,28.2h-0.5L22.5,25.8z M23.1,27.2l-0.3-0.8l-0.3,0.8H23.1z"/>
<path class="st0" d="M24.4,25.9h0.5l1.1,1.5v-1.5h0.5v2.4H26l-1.1-1.5v1.5h-0.5V25.9z M24.7,25.6c0.1-0.3,0.2-0.5,0.4-0.5
	c0.2,0,0.4,0.1,0.5,0.1s0.1-0.1,0.2-0.2l0.3,0.1c-0.1,0.3-0.2,0.5-0.4,0.5c-0.2,0-0.4-0.1-0.5-0.1s-0.1,0.1-0.2,0.2L24.7,25.6z"/>
<path class="st0" d="M26.9,27.1L26.9,27.1c0-0.7,0.5-1.2,1.3-1.2c0.7,0,1.3,0.5,1.3,1.2l0,0c0,0.7-0.5,1.2-1.3,1.2
	C27.4,28.3,26.9,27.7,26.9,27.1z M28.9,27.1L28.9,27.1c0-0.4-0.3-0.7-0.7-0.7s-0.7,0.3-0.7,0.7l0,0c0,0.4,0.3,0.7,0.7,0.7
	C28.6,27.8,28.9,27.5,28.9,27.1z"/>
<path class="st0" d="M29.7,27.9l0.3-0.4c0.2,0.2,0.4,0.3,0.7,0.3c0.2,0,0.3-0.1,0.3-0.2l0,0c0-0.1-0.1-0.2-0.5-0.3
	c-0.5-0.1-0.8-0.3-0.8-0.7l0,0c0-0.4,0.3-0.7,0.8-0.7c0.3,0,0.6,0.1,0.9,0.3l-0.3,0.4c-0.2-0.1-0.4-0.2-0.6-0.2s-0.3,0.1-0.3,0.2
	l0,0c0,0.2,0.1,0.2,0.5,0.3c0.5,0.1,0.7,0.3,0.7,0.7l0,0c0,0.5-0.4,0.7-0.9,0.7C30.4,28.3,30,28.1,29.7,27.9z"/>
</svg>
