<?xml version="1.0" encoding="utf-8"?>
<!-- Generator: Adobe Illustrator 19.2.1, SVG Export Plug-In . SVG Version: 6.00 Build 0)  -->
<svg version="1.1" id="Layer_1" xmlns="http://www.w3.org/2000/svg" xmlns:xlink="http://www.w3.org/1999/xlink" x="0px" y="0px"
	 viewBox="0 0 225.9 93.1" style="enable-background:new 0 0 225.9 93.1;" xml:space="preserve">
<style type="text/css">
	.st0{fill:#004A6C;}
	.st1{fill:#7892AE;}
	.st2{fill:#E12E0E;}
</style>
<g>
	<g>
		<g>
			<path class="st0" d="M22,28.1c-1.6-1.1-3.2-1.7-4.9-1.7c-2.6,0-4.9,1.2-6.8,3.6c-2,2.4-2.9,5.3-2.9,8.7v23.8H0V21h7.4v6.6
				c2.7-4.9,6.7-7.4,12-7.4c1.3,0,3.2,0.2,5.7,0.7L22,28.1z"/>
			<path class="st0" d="M66,42.5H36.1c0,4.9,1.3,8.6,4,11.2c2.3,2.3,5.4,3.4,9.1,3.4c4.2,0,7.7-1.2,10.5-3.7l3.1,5.3
				c-1.1,1.1-2.9,2.1-5.2,2.9c-3,1.1-6.2,1.6-9.8,1.6c-5.2,0-9.6-1.8-13.3-5.3c-4.1-3.9-6.1-9.1-6.1-15.7c0-6.8,2.1-12.3,6.2-16.5
				c3.7-3.7,8.1-5.5,13.2-5.5c5.9,0,10.5,1.7,13.9,5c3.3,3.2,4.9,7.5,4.9,12.7C66.6,39.6,66.4,41.1,66,42.5 M48.1,26.5
				c-3.3,0-6,1.1-8.3,3.2c-2.1,2-3.3,4.5-3.6,7.5h23c0-3-0.9-5.4-2.8-7.4C54.4,27.5,51.7,26.5,48.1,26.5"/>
			<path class="st0" d="M72.4,60.1l2.6-7c4.1,2.7,7.4,4,9.9,4c4.5,0,6.8-1.9,6.8-5.7c0-2.7-2.2-5.1-6.6-7.1
				c-3.4-1.5-5.7-2.7-6.8-3.5c-1.2-0.8-2.2-1.7-3.1-2.7s-1.5-2.1-1.9-3.3s-0.6-2.4-0.6-3.7c0-3.4,1.2-6.1,3.7-8s5.7-2.9,9.7-2.9
				c3,0,6.8,1,11.4,2.9l-2,6.9c-2.9-2.3-5.9-3.5-8.8-3.5c-1.8,0-3.2,0.4-4.4,1.2c-1.2,0.8-1.8,1.9-1.8,3.1c0,2.7,1.5,4.7,4.5,6.1
				l5.3,2.4c3.2,1.5,5.6,3.2,7,5c1.5,1.9,2.2,4.2,2.2,7.1c0,3.7-1.3,6.6-3.9,8.7c-2.6,2.1-6.2,3.2-10.8,3.2
				C80.4,63.3,76.3,62.2,72.4,60.1"/>
			<path class="st0" d="M143,42.5h-29.9c0,4.9,1.3,8.6,4,11.2c2.3,2.3,5.4,3.4,9.1,3.4c4.2,0,7.7-1.2,10.5-3.7l3.1,5.3
				c-1.1,1.1-2.9,2.1-5.2,2.9c-2.9,1.1-6.2,1.6-9.8,1.6c-5.2,0-9.6-1.8-13.3-5.3c-4.1-3.9-6.1-9.1-6.1-15.7c0-6.8,2.1-12.3,6.2-16.5
				c3.7-3.7,8.1-5.5,13.2-5.5c5.9,0,10.6,1.7,13.9,5c3.3,3.2,4.9,7.5,4.9,12.7C143.6,39.6,143.4,41.1,143,42.5 M125.1,26.5
				c-3.3,0-6,1.1-8.3,3.2c-2.1,2-3.3,4.5-3.6,7.5h23c0-3-0.9-5.4-2.8-7.4C131.4,27.5,128.6,26.5,125.1,26.5"/>
			<path class="st0" d="M174.7,28.1c-1.6-1.1-3.2-1.7-4.8-1.7c-2.6,0-4.9,1.2-6.8,3.6c-2,2.4-2.9,5.3-2.9,8.7v23.8h-7.4V21h7.4v6.6
				c2.7-4.9,6.7-7.4,12-7.4c1.3,0,3.2,0.2,5.7,0.7L174.7,28.1z"/>
			<rect y="74.1" class="st0" width="3.9" height="18.6"/>
			<polygon class="st0" points="17.4,77.1 17.4,92.8 13.5,92.8 13.5,77.1 6.5,77.1 6.5,74.1 24.6,74.1 24.6,77.1 			"/>
			<path class="st1" d="M30.8,91.7l1.4-3c1.5,0.9,3,1.4,4.5,1.4c2.3,0,3.4-0.7,3.4-2c0-0.6-0.3-1.2-0.8-1.8
				c-0.5-0.6-1.6-1.2-3.3-1.9c-1.7-0.7-2.8-1.3-3.4-1.8c-0.6-0.5-1-1-1.3-1.6s-0.5-1.3-0.5-2.1c0-1.4,0.6-2.6,1.9-3.6
				c1.2-1,2.8-1.4,4.8-1.4c2.5,0,4.4,0.4,5.6,1.2l-1.2,2.8c-1.4-0.8-2.8-1.2-4.3-1.2c-0.9,0-1.6,0.2-2.1,0.6s-0.8,0.9-0.8,1.6
				c0,1.1,1.4,2.2,4.2,3.3c1.5,0.6,2.5,1.2,3.2,1.7s1.2,1.1,1.5,1.8c0.3,0.7,0.5,1.4,0.5,2.3c0,1.5-0.7,2.8-2.1,3.7
				c-1.4,1-3.3,1.5-5.6,1.5C34.3,93.1,32.5,92.6,30.8,91.7"/>
			<path class="st1" d="M48,83.3c0-2.7,0.9-4.9,2.6-6.7c1.7-1.8,4-2.7,6.9-2.7c3.1,0,5.5,0.8,7.2,2.5s2.5,4,2.5,7s-0.9,5.4-2.6,7.1
				c-1.7,1.8-4.2,2.6-7.4,2.6c-2.9,0-5.2-0.9-6.8-2.6C48.8,88.7,48,86.3,48,83.3 M52.1,83.3c0,2.2,0.4,3.9,1.3,5.1
				c0.9,1.2,2.1,1.8,3.8,1.8c1.9,0,3.4-0.6,4.5-1.8c1-1.2,1.5-2.9,1.5-5.1c0-4.4-1.9-6.6-5.7-6.6c-1.7,0-3.1,0.6-4,1.8
				C52.5,79.7,52.1,81.3,52.1,83.3"/>
			<polygon class="st1" points="72.2,92.8 72.2,74.1 76,74.1 76,89.8 85.9,89.8 85.9,92.8 			"/>
			<path class="st1" d="M90.6,74.1h3.9v12.6c0,1,0.4,1.8,1.1,2.4s1.7,0.9,3,0.9c1.4,0,2.5-0.3,3.3-0.9s1.2-1.5,1.2-2.5V74.1h3.9
				v12.8c0,1.9-0.7,3.4-2.3,4.5c-1.5,1.1-3.5,1.6-6,1.6s-4.5-0.5-5.9-1.6s-2.1-2.6-2.1-4.6L90.6,74.1L90.6,74.1z"/>
			<polygon class="st1" points="123.4,77.1 123.4,92.8 119.5,92.8 119.5,77.1 112.6,77.1 112.6,74.1 130.7,74.1 130.7,77.1 			"/>
			<rect x="136.4" y="74.1" class="st1" width="3.9" height="18.6"/>
			<path class="st1" d="M145.4,83.3c0-2.7,0.9-4.9,2.6-6.7c1.7-1.8,4-2.7,6.9-2.7c3.2,0,5.6,0.8,7.2,2.5c1.7,1.7,2.5,4,2.5,7
				s-0.9,5.4-2.6,7.1c-1.7,1.8-4.2,2.6-7.4,2.6c-2.9,0-5.2-0.9-6.8-2.6C146.2,88.7,145.4,86.3,145.4,83.3 M149.4,83.3
				c0,2.2,0.4,3.9,1.3,5.1c0.9,1.2,2.1,1.8,3.8,1.8c1.9,0,3.4-0.6,4.5-1.8c1-1.2,1.5-2.9,1.5-5.1c0-4.4-1.9-6.6-5.7-6.6
				c-1.7,0-3.1,0.6-4,1.8C149.9,79.7,149.4,81.3,149.4,83.3"/>
			<polygon class="st1" points="183.9,93 173.3,81.2 173.3,92.8 169.5,92.8 169.5,74.1 171.4,74.1 181.7,85.4 181.7,74.1 
				185.5,74.1 185.5,93 			"/>
			<path class="st1" d="M190.5,91.7l1.4-3c1.5,0.9,3,1.4,4.5,1.4c2.3,0,3.4-0.7,3.4-2c0-0.6-0.3-1.2-0.8-1.8
				c-0.6-0.6-1.6-1.2-3.3-1.9c-1.7-0.7-2.8-1.3-3.4-1.8c-0.6-0.5-1-1-1.3-1.6s-0.5-1.3-0.5-2.1c0-1.4,0.6-2.6,1.9-3.6
				c1.2-1,2.8-1.4,4.8-1.4c2.5,0,4.4,0.4,5.6,1.2l-1.2,2.8c-1.4-0.8-2.8-1.2-4.3-1.2c-0.9,0-1.6,0.2-2.1,0.6s-0.7,0.9-0.7,1.6
				c0,1.1,1.4,2.2,4.2,3.3c1.5,0.6,2.5,1.2,3.2,1.7c0.6,0.5,1.1,1.1,1.5,1.8c0.3,0.7,0.5,1.4,0.5,2.3c0,1.5-0.7,2.8-2.1,3.7
				c-1.4,1-3.3,1.5-5.6,1.5C194,93.1,192.1,92.6,190.5,91.7"/>
		</g>
	</g>
	<polygon class="st2" points="196.7,63.3 198.8,63.3 225.7,4.8 225.9,0 197.9,47.7 189.5,29.3 181.8,29.3 	"/>
</g>
</svg>
